# xmcd
#
# Track frame offsets:
#   167
#   15545
#   31350
#   45214
#   61174
#   78906
#   94606
#   109068
#   122218
#   136861
#   150747
#   166908
#   180503
#   195719
#   209797
#   222018
#   236710
#   250129
#   264650
#   280323
#
# Disc length: 3933 seconds
#
# Revision: 0
# Processed by: cddbd v1.5.1PL0 Copyright (c) Steve Scherf et al.
# Submitted via: uFREEDB ActiveX Control 1.5
#
DISCID=100f5b14
DTITLE=Som Zoom - 20 sucesso
DYEAR=1900
DGENRE=UnClassifiable
TTITLE0=Matruz com Leite - Anjo da guarda
TTITLE1=Capital do Sol - Nossa Canção
TTITLE2=Catuaba com Amendoim - Parabéns meu amor
TTITLE3=Cavalo de Pau - Padecer no Paraíso
TTITLE4=Frank Aguiar - Moto Táxi
TTITLE5=Rita de Cássia and Redondo - Serpente
TTITLE6=Banda Stylus - Lagrimas de Amor
TTITLE7=Flor de Cheiro - Semente de amor
TTITLE8=Calango Aceso - Me gfaz mulher
TTITLE9=Mel com Terra - Você é facinação
TTITLE10=Doce Mel - Mentiras
TTITLE11=Cacchorra da Mulesta - Chega de Sofre
TTITLE12=Força Livre - Assumir que te amo
TTITLE13=Rabo de Saia - Se formos um do outro
TTITLE14=Familia Plokes - Enrolão
TTITLE15=Magal da Praia - Ela me traiu usando o resto das c
TTITLE16=Banda Aquárius - De hortelã de puro mel
TTITLE17=Vôo Livre - O bicho e feio mas é bom
TTITLE18=Neo pi Neo - A Rural
TTITLE19=Caçarola - Pai é o que cria
EXTD=
EXTT0=
EXTT1=
EXTT2=
EXTT3=
EXTT4=
EXTT5=
EXTT6=
EXTT7=
EXTT8=
EXTT9=
EXTT10=
EXTT11=
EXTT12=
EXTT13=
EXTT14=
EXTT15=
EXTT16=
EXTT17=
EXTT18=
EXTT19=
PLAYORDER=
